<svg width="24" height="24" viewBox="0 0 24 24" fill="none" xmlns="http://www.w3.org/2000/svg">
<path fill-rule="evenodd" clip-rule="evenodd" d="M9 11.0002C8.44772 11.0002 8 11.448 8 12.0002C8 12.5525 8.44772 13.0002 9 13.0002H15C15.5523 13.0002 16 12.5525 16 12.0002C16 11.448 15.5523 11.0002 15 11.0002H9ZM9 14.0002C8.44772 14.0002 8 14.448 8 15.0002C8 15.5525 8.44772 16.0002 9 16.0002H15C15.5523 16.0002 16 15.5525 16 15.0002C16 14.448 15.5523 14.0002 15 14.0002H9ZM12.482 2.00014C13.1608 1.9991 13.7632 1.99817 14.3196 2.22864C14.876 2.45911 15.3014 2.88576 15.7806 3.36649C16.7302 4.31899 17.6813 5.27008 18.6338 6.21966C19.1145 6.69891 19.5412 7.12425 19.7716 7.68066C20.0021 8.23706 20.0012 8.83951 20.0001 9.51832C19.9963 12.0342 20 14.5502 20 17.0661C20.0001 17.9526 20.0001 18.7164 19.9179 19.3281C19.8297 19.9836 19.631 20.6119 19.1213 21.1216C18.6117 21.6313 17.9833 21.83 17.3278 21.9181C16.7161 22.0004 15.9523 22.0003 15.0658 22.0003H8.9342C8.0477 22.0003 7.28388 22.0004 6.67221 21.9181C6.0167 21.83 5.38835 21.6313 4.87868 21.1216C4.36902 20.6119 4.17028 19.9836 4.08215 19.3281C3.99991 18.7164 3.99995 17.9526 4 17.0661L4.00001 7.00028C4.00001 6.97826 4 6.95632 4 6.93445C3.99995 6.04796 3.99991 5.28415 4.08215 4.67249C4.17028 4.01697 4.36902 3.38862 4.87869 2.87896C5.38835 2.3693 6.0167 2.17055 6.67221 2.08242C7.28387 2.00019 8.04769 2.00023 8.93418 2.00028C10.1168 2.00034 11.2994 2.00196 12.482 2.00014Z" fill="#B84E44"/>
</svg>
