<svg width="24" height="24" viewBox="0 0 24 24" fill="none" xmlns="http://www.w3.org/2000/svg">
<path fill-rule="evenodd" clip-rule="evenodd" d="M6 8C6 4.68629 8.68629 2 12 2C15.3137 2 18 4.68629 18 8C18 11.3137 15.3137 14 12 14C8.68629 14 6 11.3137 6 8Z" fill="#B84E44"/>
<path fill-rule="evenodd" clip-rule="evenodd" d="M5.43143 16.9025C7.05636 16.2213 9.22379 16 12.0005 16C14.7715 16 16.9355 16.2204 18.5591 16.8981C20.3017 17.6255 21.3713 18.8613 21.9414 20.6587C22.1533 21.3267 21.6522 22 20.9597 22H3.03508C2.34531 22 1.84727 21.3297 2.05738 20.6654C2.62586 18.8681 3.69168 17.6318 5.43143 16.9025Z" fill="#B84E44"/>
</svg>
